<?xml version="1.0" standalone="no"?>
<svg viewBox="0 0 200 200" xmlns="http://www.w3.org/2000/svg">
  <path fill="#FA4D56" d="M27.5,-37.6C39.4,-35.2,55.2,-33.8,57.5,-26.8C59.8,-19.9,48.4,-7.3,43.9,4.5C39.4,16.3,41.7,27.2,38.5,36.3C35.2,45.3,26.4,52.6,15.8,57.1C5.3,61.7,-7,63.7,-12.3,55.8C-17.7,47.9,-16.1,30.2,-16.2,19.8C-16.4,9.3,-18.3,6.1,-27.4,-1.3C-36.5,-8.6,-52.9,-20.1,-55.4,-29.8C-58,-39.4,-46.6,-47.2,-35.1,-49.8C-23.5,-52.3,-11.8,-49.7,-2,-46.7C7.8,-43.6,15.7,-40.1,27.5,-37.6Z" transform="translate(100 100)" />
</svg>
